<?xml version="1.0" encoding="UTF-8" standalone="no"?><!DOCTYPE svg PUBLIC "-//W3C//DTD SVG 1.1//EN" "http://www.w3.org/Graphics/SVG/1.1/DTD/svg11.dtd"><svg width="100%" height="100%" viewBox="0 0 65 46" version="1.1" xmlns="http://www.w3.org/2000/svg" xmlns:xlink="http://www.w3.org/1999/xlink" xml:space="preserve" xmlns:serif="http://www.serif.com/" style="fill-rule:evenodd;clip-rule:evenodd;stroke-linecap:round;stroke-miterlimit:2;"><rect id="web" x="0" y="0" width="64.53" height="45.031" style="fill:none;"/><g id="div-3" serif:id="div 3"><g><g><g><path d="M11.003,34.782l-7.379,-0.05l-0.001,0.148l7.379,0.05l0.001,-0.148Z" style="fill:#fff;"/><path d="M12.443,32.913c0.965,0.168 1.611,1.088 1.443,2.053c-0.168,0.964 -1.088,1.611 -2.052,1.443c-0.965,-0.168 -1.612,-1.088 -1.444,-2.052c0.168,-0.965 1.088,-1.612 2.053,-1.444Z" style="fill:#ff8082;"/></g><circle cx="3.092" cy="34.9" r="2.112" style="fill:#55ff7e;fill-opacity:0;stroke:#fff;stroke-width:0.4px;stroke-dasharray:0.4,0.8,0,0;"/><circle cx="3.08" cy="34.888" r="1.375" style="fill:#fff;"/></g><text x="1.298px" y="40.917px" style="font-family:'SFProDisplay-Regular', 'SF Pro Display';font-size:2.154px;fill:#fff;">Aut<tspan x="4.612px 5.837px 7.045px 7.773px 8.279px 9.267px 9.773px " y="40.917px 40.917px 40.917px 40.917px 40.917px 40.917px 40.917px ">hor - T</tspan>it<tspan x="12.258px " y="40.917px ">l</tspan>e</text></g><g><text x="0.846px" y="6.611px" style="font-family:'SFProDisplay-Regular', 'SF Pro Display';font-size:3.178px;fill:#fff;">Y<tspan x="2.592px 4.315px 6.006px " y="6.611px 6.611px 6.611px ">ear</tspan></text><g id="year"><g><text x="0.545px" y="14.234px" style="font-family:'SFProDisplay-Light', 'SF Pro Display';font-weight:300;font-size:1.695px;fill:#fff;">201<tspan x="3.362px " y="14.234px ">0</tspan></text><circle cx="2.501" cy="10.519" r="1.576" style="fill:#0781df;"/></g><g><text x="6.103px" y="14.234px" style="font-family:'SFProDisplay-Light', 'SF Pro Display';font-weight:300;font-size:1.695px;fill:#fff;">201<tspan x="8.923px " y="14.234px ">1</tspan></text><circle cx="7.79" cy="10.519" r="1.576" style="fill:#00aa9f;"/></g><g><text x="11.257px" y="14.234px" style="font-family:'SFProDisplay-Light', 'SF Pro Display';font-weight:300;font-size:1.695px;fill:#fff;">201<tspan x="14.067px " y="14.234px ">2</tspan></text><circle cx="13.078" cy="10.519" r="1.576" style="fill:#ffb646;"/></g><g><text x="16.545px" y="14.234px" style="font-family:'SFProDisplay-Light', 'SF Pro Display';font-weight:300;font-size:1.695px;fill:#fff;">201<tspan x="19.363px " y="14.234px ">3</tspan></text><circle cx="18.367" cy="10.519" r="1.576" style="fill:#1d9c3d;"/></g><g><text x="21.834px" y="14.234px" style="font-family:'SFProDisplay-Light', 'SF Pro Display';font-weight:300;font-size:1.695px;fill:#fff;">201<tspan x="24.635px " y="14.234px ">4</tspan></text><circle cx="23.655" cy="10.519" r="1.576" style="fill:#ff863d;"/></g><g><text x="27.122px" y="14.234px" style="font-family:'SFProDisplay-Light', 'SF Pro Display';font-weight:300;font-size:1.695px;fill:#fff;">201<tspan x="29.932px " y="14.234px ">5</tspan></text><circle cx="28.944" cy="10.519" r="1.576" style="fill:#ff352e;"/></g><g><text x="32.411px" y="14.234px" style="font-family:'SFProDisplay-Light', 'SF Pro Display';font-weight:300;font-size:1.695px;fill:#fff;">201<tspan x="35.228px " y="14.234px ">6</tspan></text><circle cx="34.232" cy="10.519" r="1.576" style="fill:#9262f8;"/></g><g><text x="37.699px" y="14.234px" style="font-family:'SFProDisplay-Light', 'SF Pro Display';font-weight:300;font-size:1.695px;fill:#fff;">201<tspan x="40.519px " y="14.234px ">7</tspan></text><circle cx="39.521" cy="10.519" r="1.576" style="fill:#ff8082;"/></g><g><text x="42.988px" y="14.234px" style="font-family:'SFProDisplay-Light', 'SF Pro Display';font-weight:300;font-size:1.695px;fill:#fff;">201<tspan x="45.8px " y="14.234px ">8</tspan></text><circle cx="44.809" cy="10.519" r="1.576" style="fill:#c06c30;"/></g></g></g><g><text x="0.627px" y="20.207px" style="font-family:'SFProDisplay-Regular', 'SF Pro Display';font-size:3.178px;fill:#fff;">Nu<tspan x="4.714px 7.363px 9.218px 10.941px 12.015px 12.763px 14.545px 15.605px 16.353px 18.04px 18.79px 19.812px 21.503px 22.556px 23.306px " y="20.207px 20.207px 20.207px 20.207px 20.207px 20.207px 20.207px 20.207px 20.207px 20.207px 20.207px 20.207px 20.207px 20.207px 20.207px ">mber of citatio</tspan>n</text><g id="no-of-citation" serif:id="no of citation"><g><text x="0.207px" y="29.329px" style="font-family:'SFProDisplay-Light', 'SF Pro Display';font-weight:300;font-size:1.695px;fill:#fff;">0 <tspan x="1.667px 2.441px 2.839px " y="29.329px 29.329px 29.329px ">- 5</tspan>0</text><circle cx="2.384" cy="25.666" r="1.576" style="fill:#9262f8;"/></g><g><text x="7.428px" y="29.285px" style="font-family:'SFProDisplay-Light', 'SF Pro Display';font-weight:300;font-size:1.695px;fill:#fff;">51 <tspan x="9.615px 10.39px 10.787px " y="29.285px 29.285px 29.285px ">- 1</tspan>00</text><circle cx="10.39" cy="25.389" r="1.802" style="fill:#9262f8;"/></g><g><text x="16.123px" y="29.327px" style="font-family:'SFProDisplay-Light', 'SF Pro Display';font-weight:300;font-size:1.695px;fill:#fff;">51 <tspan x="18.311px 19.085px 19.483px " y="29.327px 29.327px 29.327px ">- 1</tspan>00</text><circle cx="19.386" cy="25.121" r="2.102" style="fill:#9262f8;"/></g><g><text x="24.819px" y="29.327px" style="font-family:'SFProDisplay-Light', 'SF Pro Display';font-weight:300;font-size:1.695px;fill:#fff;">101<tspan x="27.397px 27.795px 28.569px " y="29.327px 29.327px 29.327px "> - </tspan>15<tspan x="30.754px " y="29.327px ">0</tspan></text><circle cx="27.971" cy="24.811" r="2.402" style="fill:#9262f8;"/></g><g><text x="34.211px" y="29.355px" style="font-family:'SFProDisplay-Light', 'SF Pro Display';font-weight:300;font-size:1.695px;fill:#fff;">151<tspan x="36.756px 37.154px 37.928px 38.325px 39.33px " y="29.355px 29.355px 29.355px 29.355px 29.355px "> - 20</tspan>0</text><circle cx="37.663" cy="24.53" r="2.703" style="fill:#9262f8;"/></g><g><text x="43.844px" y="29.359px" style="font-family:'SFProDisplay-Light', 'SF Pro Display';font-weight:300;font-size:1.695px;fill:#fff;">201<tspan x="46.664px 47.062px 47.836px " y="29.359px 29.359px 29.359px "> - </tspan>25<tspan x="50.258px " y="29.359px ">0</tspan></text><circle cx="47.241" cy="24.224" r="3.003" style="fill:#9262f8;"/></g><g><text x="53.861px" y="29.308px" style="font-family:'SFProDisplay-Light', 'SF Pro Display';font-weight:300;font-size:1.695px;fill:#fff;">251<tspan x="56.643px 57.041px 57.815px 58.213px 59.243px " y="29.308px 29.308px 29.308px 29.308px 29.308px "> - 30</tspan>0</text><circle cx="57.101" cy="23.914" r="3.303" style="fill:#9262f8;"/></g></g></g></g></svg>